<svg width="33" height="28" viewBox="0 0 33 28" fill="none" xmlns="http://www.w3.org/2000/svg">
<path d="M25.715 14.2054C25.715 13.6267 25.6507 13.0294 25.5435 12.4694H16.2646V15.7734H21.5791C21.3648 16.8374 20.6577 17.7707 19.6076 18.368L22.7792 20.5147C24.6435 19.0027 25.715 16.8 25.715 14.2054Z" fill="#4280EF"/>
<path d="M16.265 22.568C18.9223 22.568 21.1509 21.8027 22.7795 20.496L19.608 18.368C18.7294 18.8907 17.5936 19.1894 16.265 19.1894C13.6935 19.1894 11.5291 17.6774 10.7363 15.6614L7.479 17.8454C9.15049 20.7387 12.5363 22.568 16.265 22.568Z" fill="#34A353"/>
<path d="M10.736 15.6427C10.3289 14.5787 10.3289 13.4214 10.736 12.3574L7.47876 10.1547C6.08586 12.5814 6.08586 15.4374 7.47876 17.8454L10.736 15.6427Z" fill="#F6B704"/>
<path d="M16.265 8.82936C17.6579 8.81069 19.0294 9.27736 20.0366 10.1174L22.8438 7.65336C21.0652 6.19736 18.708 5.41336 16.265 5.43203C12.5363 5.43203 9.15049 7.26136 7.479 10.1547L10.7363 12.3574C11.5291 10.3227 13.6935 8.82936 16.265 8.82936Z" fill="#E54335"/>
</svg>
