<svg width="93" height="93" viewBox="0 0 93 93" fill="none" xmlns="http://www.w3.org/2000/svg">
<path d="M46.7 22C33.1 22 22 33.1 22 46.7C22 60.3 33.1 71.4 46.7 71.4C60.3 71.4 71.4 60.3 71.4 46.7C71.4 33.1 60.3 22 46.7 22ZM28.9 46.7C28.9 41.6 31.1 36.9 34.6 33.7C36 32.4 38.4 32.8 39.4 34.5L45.6 45.2C46.2 46.2 46.2 47.4 45.6 48.4L39.4 59.1C38.4 60.9 36 61.2 34.5 59.8C31.1 56.4 28.9 51.8 28.9 46.7ZM54 58.9L47.8 48.2C47.2 47.2 47.2 46 47.8 45L54 34.3C55 32.6 57.3 32.2 58.8 33.5C62.3 36.7 64.5 41.4 64.5 46.5C64.5 51.6 62.3 56.3 58.8 59.5C57.3 61.1 55 60.7 54 58.9Z" fill="#1DA0E0"/>
</svg>
